<?xml version="1.0" encoding="UTF-8" standalone="no"?>
<!DOCTYPE svg PUBLIC "-//W3C//DTD SVG 1.1//EN"
 "http://www.w3.org/Graphics/SVG/1.1/DTD/svg11.dtd">
<!-- Generated by graphviz version 7.1.0 (20230121.1956)
 -->
<!-- Title: dependency&#45;cruiser output Pages: 1 -->
<svg width="426pt" height="200pt"
 viewBox="0.00 0.00 426.00 200.00" xmlns="http://www.w3.org/2000/svg" xmlns:xlink="http://www.w3.org/1999/xlink">
<g id="graph0" class="graph" transform="scale(1 1) rotate(0) translate(4 196)">
<title>dependency&#45;cruiser output</title>
<polygon fill="white" stroke="none" points="-4,4 -4,-196 422,-196 422,4 -4,4"/>
<g id="clust1" class="cluster">
<title>cluster_..</title>
<path fill="#ffffff" stroke="black" stroke-width="2" d="M336,-8C336,-8 398,-8 398,-8 404,-8 410,-14 410,-20 410,-20 410,-82 410,-82 410,-88 404,-94 398,-94 398,-94 336,-94 336,-94 330,-94 324,-88 324,-82 324,-82 324,-20 324,-20 324,-14 330,-8 336,-8"/>
<text text-anchor="middle" x="367" y="-82.8" font-family="Helvetica,sans-Serif" font-weight="bold" font-size="9.00">..</text>
</g>
<g id="clust2" class="cluster">
<title>cluster_../..</title>
<path fill="#ffffff" stroke="black" stroke-width="2" d="M344,-16C344,-16 390,-16 390,-16 396,-16 402,-22 402,-28 402,-28 402,-56 402,-56 402,-62 396,-68 390,-68 390,-68 344,-68 344,-68 338,-68 332,-62 332,-56 332,-56 332,-28 332,-28 332,-22 338,-16 344,-16"/>
<text text-anchor="middle" x="367" y="-56.8" font-family="Helvetica,sans-Serif" font-weight="bold" font-size="9.00">..</text>
</g>
<g id="clust3" class="cluster">
<title>cluster_src</title>
<path fill="#ffffff" stroke="black" stroke-width="2" d="M20,-102C20,-102 390,-102 390,-102 396,-102 402,-108 402,-114 402,-114 402,-172 402,-172 402,-178 396,-184 390,-184 390,-184 20,-184 20,-184 14,-184 8,-178 8,-172 8,-172 8,-114 8,-114 8,-108 14,-102 20,-102"/>
<text text-anchor="middle" x="205" y="-172.8" font-family="Helvetica,sans-Serif" font-weight="bold" font-size="9.00">src</text>
</g>
<!-- ../../dotenv -->
<g id="node1" class="node">
<title>../../dotenv</title>
<g id="a_node1"><a xlink:title="dotenv">
<path fill="#ffffcc" stroke="red" d="M388,-42C388,-42 346,-42 346,-42 343,-42 340,-39 340,-36 340,-36 340,-30 340,-30 340,-27 343,-24 346,-24 346,-24 388,-24 388,-24 391,-24 394,-27 394,-30 394,-30 394,-36 394,-36 394,-39 391,-42 388,-42"/>
<text text-anchor="start" x="353" y="-30.8" font-family="Helvetica,sans-Serif" font-size="9.00" fill="red">dotenv</text>
</a>
</g>
</g>
<!-- child_process -->
<g id="node2" class="node">
<title>child_process</title>
<g id="a_node2"><a xlink:title="child_process">
<path fill="#ffffcc" stroke="grey" d="M227,-94C227,-94 165,-94 165,-94 162,-94 159,-91 159,-88 159,-88 159,-82 159,-82 159,-79 162,-76 165,-76 165,-76 227,-76 227,-76 230,-76 233,-79 233,-82 233,-82 233,-88 233,-88 233,-91 230,-94 227,-94"/>
<text text-anchor="middle" x="196" y="-82.8" font-family="Helvetica,sans-Serif" font-size="9.00" fill="grey">child_process</text>
</a>
</g>
</g>
<!-- events -->
<g id="node3" class="node">
<title>events</title>
<g id="a_node3"><a xlink:title="events">
<path fill="#ffffcc" stroke="grey" d="M302,-94C302,-94 260,-94 260,-94 257,-94 254,-91 254,-88 254,-88 254,-82 254,-82 254,-79 257,-76 260,-76 260,-76 302,-76 302,-76 305,-76 308,-79 308,-82 308,-82 308,-88 308,-88 308,-91 305,-94 302,-94"/>
<text text-anchor="middle" x="281" y="-82.8" font-family="Helvetica,sans-Serif" font-size="9.00" fill="grey">events</text>
</a>
</g>
</g>
<!-- net -->
<g id="node4" class="node">
<title>net</title>
<g id="a_node4"><a xlink:title="net">
<path fill="#ffffcc" stroke="grey" d="M302,-64C302,-64 260,-64 260,-64 257,-64 254,-61 254,-58 254,-58 254,-52 254,-52 254,-49 257,-46 260,-46 260,-46 302,-46 302,-46 305,-46 308,-49 308,-52 308,-52 308,-58 308,-58 308,-61 305,-64 302,-64"/>
<text text-anchor="middle" x="281" y="-52.8" font-family="Helvetica,sans-Serif" font-size="9.00" fill="grey">net</text>
</a>
</g>
</g>
<!-- src/client.js -->
<g id="node5" class="node">
<title>src/client.js</title>
<g id="a_node5"><a xlink:href="src/client.js" xlink:title="client.js">
<path fill="#ffffcc" stroke="black" d="M388,-135C388,-135 346,-135 346,-135 343,-135 340,-132 340,-129 340,-129 340,-123 340,-123 340,-120 343,-117 346,-117 346,-117 388,-117 388,-117 391,-117 394,-120 394,-123 394,-123 394,-129 394,-129 394,-132 391,-135 388,-135"/>
<text text-anchor="start" x="351.5" y="-123.8" font-family="Helvetica,sans-Serif" font-size="9.00">client.js</text>
</a>
</g>
</g>
<!-- src/find_port.js -->
<g id="node6" class="node">
<title>src/find_port.js</title>
<g id="a_node6"><a xlink:href="src/find_port.js" xlink:title="find_port.js">
<path fill="#ffffcc" stroke="black" d="M72,-128C72,-128 22,-128 22,-128 19,-128 16,-125 16,-122 16,-122 16,-116 16,-116 16,-113 19,-110 22,-110 22,-110 72,-110 72,-110 75,-110 78,-113 78,-116 78,-116 78,-122 78,-122 78,-125 75,-128 72,-128"/>
<text text-anchor="start" x="24" y="-116.8" font-family="Helvetica,sans-Serif" font-size="9.00">find_port.js</text>
</a>
</g>
</g>
<!-- src/find_port.js&#45;&gt;net -->
<g id="edge1" class="edge">
<title>src/find_port.js&#45;&gt;net</title>
<path fill="none" stroke="#000000" stroke-dasharray="5,2" stroke-opacity="0.200000" d="M65.1,-109.55C86.42,-98.23 124.28,-79.59 159,-70 187.85,-62.03 221.73,-58.29 246.3,-56.54"/>
<polygon fill="#000000" fill-opacity="0.200000" stroke="#000000" stroke-opacity="0.200000" points="246.25,-58.64 252.1,-56.15 245.97,-54.45 246.25,-58.64"/>
</g>
<!-- src/inspect.js -->
<g id="node7" class="node">
<title>src/inspect.js</title>
<g id="a_node7"><a xlink:href="src/inspect.js" xlink:title="inspect.js">
<path fill="#ffffcc" stroke="black" d="M140,-150C140,-150 97,-150 97,-150 94,-150 91,-147 91,-144 91,-144 91,-138 91,-138 91,-135 94,-132 97,-132 97,-132 140,-132 140,-132 143,-132 146,-135 146,-138 146,-138 146,-144 146,-144 146,-147 143,-150 140,-150"/>
<text text-anchor="start" x="99" y="-138.8" font-family="Helvetica,sans-Serif" font-size="9.00">inspect.js</text>
</a>
</g>
</g>
<!-- src/inspect.js&#45;&gt;child_process -->
<g id="edge4" class="edge">
<title>src/inspect.js&#45;&gt;child_process</title>
<path fill="none" stroke="#000000" stroke-dasharray="5,2" stroke-opacity="0.200000" d="M126.13,-131.84C133.31,-122.48 145.56,-108.07 159,-99 159.64,-98.57 160.29,-98.15 160.96,-97.74"/>
<polygon fill="#000000" fill-opacity="0.200000" stroke="#000000" stroke-opacity="0.200000" points="161.64,-99.76 165.9,-95.05 159.63,-96.07 161.64,-99.76"/>
</g>
<!-- src/inspect.js&#45;&gt;src/client.js -->
<g id="edge2" class="edge">
<title>src/inspect.js&#45;&gt;src/client.js</title>
<path fill="none" stroke="#000000" stroke-width="2" stroke-opacity="0.200000" d="M146.38,-143.46C184.39,-146.37 255.92,-149.82 316,-141 321,-140.27 326.19,-139.14 331.25,-137.83"/>
<polygon fill="#000000" fill-opacity="0.200000" stroke="#000000" stroke-width="2" stroke-opacity="0.200000" points="331.48,-139.95 336.68,-136.3 330.34,-135.91 331.48,-139.95"/>
</g>
<!-- src/nvim&#45;bridge.js -->
<g id="node8" class="node">
<title>src/nvim&#45;bridge.js</title>
<g id="a_node8"><a xlink:href="src/nvim-bridge.js" xlink:title="nvim&#45;bridge.js">
<path fill="#ffffcc" stroke="black" d="M227,-128C227,-128 165,-128 165,-128 162,-128 159,-125 159,-122 159,-122 159,-116 159,-116 159,-113 162,-110 165,-110 165,-110 227,-110 227,-110 230,-110 233,-113 233,-116 233,-116 233,-122 233,-122 233,-125 230,-128 227,-128"/>
<text text-anchor="start" x="167" y="-116.8" font-family="Helvetica,sans-Serif" font-size="9.00">nvim&#45;bridge.js</text>
</a>
</g>
</g>
<!-- src/inspect.js&#45;&gt;src/nvim&#45;bridge.js -->
<g id="edge3" class="edge">
<title>src/inspect.js&#45;&gt;src/nvim&#45;bridge.js</title>
<path fill="none" stroke="#000000" stroke-width="2" stroke-opacity="0.200000" d="M146.33,-133.18C146.5,-133.13 146.66,-133.09 146.82,-133.04"/>
<polygon fill="#000000" fill-opacity="0.200000" stroke="#000000" stroke-width="2" stroke-opacity="0.200000" points="154.49,-132.99 159.66,-129.3 153.31,-128.96 154.49,-132.99"/>
<polyline fill="none" stroke="#000000" stroke-width="2" stroke-opacity="0.200000" points="152.94,-131.26 150.06,-132.1"/>
<ellipse fill="none" stroke="#000000" stroke-width="2" stroke-opacity="0.200000" cx="146.8" cy="-133.05" rx="2.4" ry="2.4"/>
</g>
<!-- src/nvim&#45;bridge.js&#45;&gt;events -->
<g id="edge7" class="edge">
<title>src/nvim&#45;bridge.js&#45;&gt;events</title>
<path fill="none" stroke="#000000" stroke-dasharray="5,2" stroke-opacity="0.200000" d="M220.12,-109.53C229.47,-105.7 240.39,-101.23 250.32,-97.16"/>
<polygon fill="#000000" fill-opacity="0.200000" stroke="#000000" stroke-opacity="0.200000" points="250.85,-99.21 255.6,-94.99 249.25,-95.33 250.85,-99.21"/>
</g>
<!-- src/nvim&#45;bridge.js&#45;&gt;net -->
<g id="edge8" class="edge">
<title>src/nvim&#45;bridge.js&#45;&gt;net</title>
<path fill="none" stroke="#000000" stroke-dasharray="5,2" stroke-opacity="0.200000" d="M220.33,-109.66C224.94,-107.04 229.45,-103.84 233,-100 242.87,-89.34 235.76,-80.31 246,-70 246.57,-69.43 247.16,-68.88 247.78,-68.34"/>
<polygon fill="#000000" fill-opacity="0.200000" stroke="#000000" stroke-opacity="0.200000" points="248.89,-70.13 252.57,-64.94 246.46,-66.7 248.89,-70.13"/>
</g>
<!-- src/vim&#45;events.js -->
<g id="node10" class="node">
<title>src/vim&#45;events.js</title>
<g id="a_node10"><a xlink:href="src/vim-events.js" xlink:title="vim&#45;events.js">
<path fill="#ffffcc" stroke="black" d="M310,-135C310,-135 252,-135 252,-135 249,-135 246,-132 246,-129 246,-129 246,-123 246,-123 246,-120 249,-117 252,-117 252,-117 310,-117 310,-117 313,-117 316,-120 316,-123 316,-123 316,-129 316,-129 316,-132 313,-135 310,-135"/>
<text text-anchor="start" x="254" y="-123.8" font-family="Helvetica,sans-Serif" font-size="9.00">vim&#45;events.js</text>
</a>
</g>
</g>
<!-- src/nvim&#45;bridge.js&#45;&gt;src/vim&#45;events.js -->
<g id="edge6" class="edge">
<title>src/nvim&#45;bridge.js&#45;&gt;src/vim&#45;events.js</title>
<path fill="none" stroke="#000000" stroke-width="2" stroke-opacity="0.200000" d="M233.16,-122.05C233.29,-122.06 233.42,-122.07 233.55,-122.08"/>
<polygon fill="#000000" fill-opacity="0.200000" stroke="#000000" stroke-width="2" stroke-opacity="0.200000" points="236.36,-124.43 242.51,-122.84 236.71,-120.24 236.36,-124.43"/>
<polyline fill="none" stroke="#000000" stroke-width="2" stroke-opacity="0.200000" points="235.54,-122.25 232.55,-122"/>
<ellipse fill="none" stroke="#000000" stroke-width="2" stroke-opacity="0.200000" cx="229.16" cy="-121.71" rx="2.4" ry="2.4"/>
</g>
<!-- src/main.js -->
<g id="node9" class="node">
<title>src/main.js</title>
<g id="a_node9"><a xlink:href="src/main.js" xlink:title="main.js">
<path fill="#ffffcc" stroke="black" d="M68,-158C68,-158 26,-158 26,-158 23,-158 20,-155 20,-152 20,-152 20,-146 20,-146 20,-143 23,-140 26,-140 26,-140 68,-140 68,-140 71,-140 74,-143 74,-146 74,-146 74,-152 74,-152 74,-155 71,-158 68,-158"/>
<text text-anchor="start" x="32" y="-146.8" font-family="Helvetica,sans-Serif" font-size="9.00">main.js</text>
</a>
</g>
</g>
<!-- src/main.js&#45;&gt;src/inspect.js -->
<g id="edge5" class="edge">
<title>src/main.js&#45;&gt;src/inspect.js</title>
<path fill="none" stroke="#000000" stroke-width="2" stroke-opacity="0.200000" d="M74.27,-145.98C76.8,-145.69 79.38,-145.39 81.98,-145.09"/>
<polygon fill="#000000" fill-opacity="0.200000" stroke="#000000" stroke-width="2" stroke-opacity="0.200000" points="82,-147.2 87.72,-144.43 81.52,-143.03 82,-147.2"/>
</g>
<!-- src/vim&#45;events.js&#45;&gt;../../dotenv -->
<g id="edge9" class="edge">
<title>src/vim&#45;events.js&#45;&gt;../../dotenv</title>
<path fill="none" stroke="#000000" stroke-width="2" stroke-opacity="0.200000" d="M295.95,-116.68C302.39,-112.04 309.94,-106.13 316,-100 331.35,-84.47 345.93,-64.05 355.34,-49.85"/>
<polygon fill="#000000" fill-opacity="0.200000" stroke="#000000" stroke-width="2" stroke-opacity="0.200000" points="357.09,-51.01 358.6,-44.83 353.57,-48.72 357.09,-51.01"/>
</g>
<!-- src/vim&#45;events.js&#45;&gt;src/client.js -->
<g id="edge10" class="edge">
<title>src/vim&#45;events.js&#45;&gt;src/client.js</title>
<path fill="none" stroke="#000000" stroke-width="2" stroke-opacity="0.200000" d="M316.17,-126C320.93,-126 325.83,-126 330.61,-126"/>
<polygon fill="#000000" fill-opacity="0.200000" stroke="#000000" stroke-width="2" stroke-opacity="0.200000" points="330.57,-128.1 336.57,-126 330.57,-123.9 330.57,-128.1"/>
</g>
<!-- src/vim&#45;events.js&#45;&gt;src/inspect.js -->
<g id="edge11" class="edge">
<title>src/vim&#45;events.js&#45;&gt;src/inspect.js</title>
<path fill="none" stroke="#000000" stroke-width="2" stroke-opacity="0.200000" d="M245.66,-132.28C241.41,-132.93 237.11,-133.52 233,-134 210.67,-136.58 185.76,-138.25 164.97,-139.31"/>
<polygon fill="#000000" fill-opacity="0.200000" stroke="#000000" stroke-width="2" stroke-opacity="0.200000" points="155.1,-137.65 149.2,-140.02 155.29,-141.85 155.1,-137.65"/>
<polyline fill="none" stroke="#000000" stroke-width="2" stroke-opacity="0.200000" points="156.19,-139.71 159.19,-139.57"/>
<ellipse fill="none" stroke="#000000" stroke-width="2" stroke-opacity="0.200000" cx="162.58" cy="-139.42" rx="2.4" ry="2.4"/>
</g>
</g>
</svg>
